<svg width="104" height="20" viewBox="0 0 104 20" fill="none" xmlns="http://www.w3.org/2000/svg">
<path d="M3.112 9.928H11.488V12.568H3.112V9.928ZM3.376 19H0.256V2.2H12.52V4.816H3.376V19ZM15.2493 19V6.184H18.2493V19H15.2493ZM16.7613 4.072C16.2013 4.072 15.7373 3.896 15.3693 3.544C15.0173 3.192 14.8413 2.768 14.8413 2.272C14.8413 1.76 15.0173 1.336 15.3693 0.999999C15.7373 0.647999 16.2013 0.472 16.7613 0.472C17.3213 0.472 17.7773 0.639999 18.1293 0.975999C18.4973 1.296 18.6813 1.704 18.6813 2.2C18.6813 2.728 18.5053 3.176 18.1533 3.544C17.8013 3.896 17.3373 4.072 16.7613 4.072ZM29.4588 6.04C30.4828 6.04 31.3948 6.24 32.1948 6.64C33.0108 7.04 33.6508 7.656 34.1148 8.488C34.5788 9.304 34.8108 10.36 34.8108 11.656V19H31.8108V12.04C31.8108 10.904 31.5388 10.056 30.9948 9.496C30.4668 8.936 29.7228 8.656 28.7628 8.656C28.0588 8.656 27.4348 8.8 26.8908 9.088C26.3468 9.376 25.9228 9.808 25.6188 10.384C25.3308 10.944 25.1868 11.656 25.1868 12.52V19H22.1868V6.184H25.0428V9.64L24.5388 8.584C24.9868 7.768 25.6348 7.144 26.4828 6.712C27.3468 6.264 28.3388 6.04 29.4588 6.04ZM38.9044 19V2.2H45.8164C47.3044 2.2 48.5764 2.44 49.6324 2.92C50.7044 3.4 51.5284 4.088 52.1044 4.984C52.6804 5.88 52.9684 6.944 52.9684 8.176C52.9684 9.408 52.6804 10.472 52.1044 11.368C51.5284 12.264 50.7044 12.952 49.6324 13.432C48.5764 13.912 47.3044 14.152 45.8164 14.152H40.6324L42.0244 12.688V19H38.9044ZM42.0244 13.024L40.6324 11.512H45.6724C47.0484 11.512 48.0804 11.224 48.7684 10.648C49.4724 10.056 49.8244 9.232 49.8244 8.176C49.8244 7.104 49.4724 6.28 48.7684 5.704C48.0804 5.128 47.0484 4.84 45.6724 4.84H40.6324L42.0244 3.304V13.024ZM61.4545 19.168C60.3665 19.168 59.4065 18.968 58.5745 18.568C57.7425 18.152 57.0945 17.528 56.6305 16.696C56.1665 15.848 55.9345 14.784 55.9345 13.504V6.184H58.9345V13.096C58.9345 14.248 59.1905 15.112 59.7025 15.688C60.2305 16.248 60.9745 16.528 61.9345 16.528C62.6385 16.528 63.2465 16.384 63.7585 16.096C64.2865 15.808 64.6945 15.376 64.9825 14.8C65.2865 14.224 65.4385 13.512 65.4385 12.664V6.184H68.4385V19H65.5825V15.544L66.0865 16.6C65.6545 17.432 65.0225 18.072 64.1905 18.52C63.3585 18.952 62.4465 19.168 61.4545 19.168ZM72.3664 19V1.192H75.3664V19H72.3664ZM83.2639 19.168C82.1919 19.168 81.1599 19.032 80.1679 18.76C79.1919 18.472 78.4159 18.128 77.8399 17.728L78.9919 15.448C79.5679 15.816 80.2559 16.12 81.0559 16.36C81.8559 16.6 82.6559 16.72 83.4559 16.72C84.3999 16.72 85.0799 16.592 85.4959 16.336C85.9279 16.08 86.1439 15.736 86.1439 15.304C86.1439 14.952 85.9999 14.688 85.7119 14.512C85.4239 14.32 85.0479 14.176 84.5839 14.08C84.1199 13.984 83.5999 13.896 83.0239 13.816C82.4639 13.736 81.8959 13.632 81.3199 13.504C80.7599 13.36 80.2479 13.16 79.7839 12.904C79.3199 12.632 78.9439 12.272 78.6559 11.824C78.3679 11.376 78.2239 10.784 78.2239 10.048C78.2239 9.232 78.4559 8.528 78.9199 7.936C79.3839 7.328 80.0319 6.864 80.8639 6.544C81.7119 6.208 82.7119 6.04 83.8639 6.04C84.7279 6.04 85.5999 6.136 86.4799 6.328C87.3599 6.52 88.0879 6.792 88.6639 7.144L87.5119 9.424C86.9039 9.056 86.2879 8.808 85.6639 8.68C85.0559 8.536 84.4479 8.464 83.8399 8.464C82.9279 8.464 82.2479 8.6 81.7999 8.872C81.3679 9.144 81.1519 9.488 81.1519 9.904C81.1519 10.288 81.2959 10.576 81.5839 10.768C81.8719 10.96 82.2479 11.112 82.7119 11.224C83.1759 11.336 83.6879 11.432 84.2479 11.512C84.8239 11.576 85.3919 11.68 85.9519 11.824C86.5119 11.968 87.0239 12.168 87.4879 12.424C87.9679 12.664 88.3519 13.008 88.6399 13.456C88.9279 13.904 89.0719 14.488 89.0719 15.208C89.0719 16.008 88.8319 16.704 88.3519 17.296C87.8879 17.888 87.2239 18.352 86.3599 18.688C85.4959 19.008 84.4639 19.168 83.2639 19.168ZM97.6795 19.168C96.2555 19.168 95.0075 18.888 93.9355 18.328C92.8795 17.752 92.0555 16.968 91.4635 15.976C90.8875 14.984 90.5995 13.856 90.5995 12.592C90.5995 11.312 90.8795 10.184 91.4395 9.208C92.0155 8.216 92.7995 7.44 93.7915 6.88C94.7995 6.32 95.9435 6.04 97.2235 6.04C98.4715 6.04 99.5835 6.312 100.56 6.856C101.536 7.4 102.304 8.168 102.864 9.16C103.424 10.152 103.704 11.32 103.704 12.664C103.704 12.792 103.696 12.936 103.68 13.096C103.68 13.256 103.672 13.408 103.656 13.552H92.9755V11.56H102.072L100.896 12.184C100.912 11.448 100.76 10.8 100.44 10.24C100.12 9.68 99.6795 9.24 99.1195 8.92C98.5755 8.6 97.9435 8.44 97.2235 8.44C96.4875 8.44 95.8395 8.6 95.2795 8.92C94.7355 9.24 94.3035 9.688 93.9835 10.264C93.6795 10.824 93.5275 11.488 93.5275 12.256V12.736C93.5275 13.504 93.7035 14.184 94.0555 14.776C94.4075 15.368 94.9035 15.824 95.5435 16.144C96.1835 16.464 96.9195 16.624 97.7515 16.624C98.4715 16.624 99.1195 16.512 99.6955 16.288C100.272 16.064 100.784 15.712 101.232 15.232L102.84 17.08C102.264 17.752 101.536 18.272 100.656 18.64C99.7915 18.992 98.7995 19.168 97.6795 19.168Z" fill="#2563EB"/>
</svg>
